<svg width="76" height="42" viewBox="0 0 76 42" fill="none" xmlns="http://www.w3.org/2000/svg">
<path d="M4.608 38.18C4.024 38.18 3.492 38.084 3.012 37.892C2.532 37.7 2.12 37.42 1.776 37.052C1.432 36.684 1.164 36.232 0.972 35.696C0.788 35.152 0.696 34.532 0.696 33.836C0.696 33.14 0.8 32.524 1.008 31.988C1.224 31.444 1.512 30.988 1.872 30.62C2.232 30.252 2.652 29.972 3.132 29.78C3.612 29.588 4.124 29.492 4.668 29.492C5.012 29.492 5.32 29.516 5.592 29.564C5.872 29.612 6.112 29.668 6.312 29.732C6.52 29.796 6.688 29.86 6.816 29.924C6.944 29.988 7.032 30.036 7.08 30.068L6.744 31.028C6.672 30.98 6.568 30.928 6.432 30.872C6.296 30.816 6.14 30.76 5.964 30.704C5.796 30.648 5.608 30.604 5.4 30.572C5.2 30.532 4.996 30.512 4.788 30.512C4.348 30.512 3.952 30.588 3.6 30.74C3.248 30.892 2.948 31.112 2.7 31.4C2.452 31.688 2.26 32.04 2.124 32.456C1.996 32.864 1.932 33.324 1.932 33.836C1.932 34.332 1.988 34.784 2.1 35.192C2.22 35.6 2.396 35.952 2.628 36.248C2.86 36.536 3.148 36.76 3.492 36.92C3.844 37.08 4.252 37.16 4.716 37.16C5.252 37.16 5.696 37.104 6.048 36.992C6.4 36.88 6.664 36.78 6.84 36.692L7.14 37.652C7.084 37.692 6.984 37.744 6.84 37.808C6.696 37.864 6.516 37.92 6.3 37.976C6.084 38.032 5.832 38.08 5.544 38.12C5.256 38.16 4.944 38.18 4.608 38.18ZM21.643 33.836C21.643 33.124 21.747 32.496 21.955 31.952C22.171 31.408 22.459 30.956 22.819 30.596C23.187 30.228 23.611 29.952 24.091 29.768C24.579 29.584 25.095 29.492 25.639 29.492C26.175 29.492 26.679 29.584 27.151 29.768C27.631 29.952 28.051 30.228 28.411 30.596C28.771 30.956 29.055 31.408 29.263 31.952C29.479 32.496 29.587 33.124 29.587 33.836C29.587 34.548 29.479 35.176 29.263 35.72C29.055 36.264 28.771 36.72 28.411 37.088C28.051 37.448 27.631 37.72 27.151 37.904C26.679 38.088 26.175 38.18 25.639 38.18C25.095 38.18 24.579 38.088 24.091 37.904C23.611 37.72 23.187 37.448 22.819 37.088C22.459 36.72 22.171 36.264 21.955 35.72C21.747 35.176 21.643 34.548 21.643 33.836ZM22.867 33.836C22.867 34.34 22.931 34.8 23.059 35.216C23.187 35.624 23.367 35.972 23.599 36.26C23.839 36.548 24.127 36.772 24.463 36.932C24.807 37.084 25.191 37.16 25.615 37.16C26.039 37.16 26.419 37.084 26.755 36.932C27.091 36.772 27.375 36.548 27.607 36.26C27.847 35.972 28.031 35.624 28.159 35.216C28.287 34.8 28.351 34.34 28.351 33.836C28.351 33.332 28.287 32.876 28.159 32.468C28.031 32.052 27.847 31.7 27.607 31.412C27.375 31.124 27.091 30.904 26.755 30.752C26.419 30.592 26.039 30.512 25.615 30.512C25.191 30.512 24.807 30.592 24.463 30.752C24.127 30.904 23.839 31.124 23.599 31.412C23.367 31.7 23.187 32.052 23.059 32.468C22.931 32.876 22.867 33.332 22.867 33.836ZM51.8869 33.836C51.8869 34.556 51.7749 35.184 51.5509 35.72C51.3269 36.248 51.0109 36.688 50.6029 37.04C50.1949 37.384 49.7069 37.644 49.1389 37.82C48.5709 37.988 47.9469 38.072 47.2669 38.072C46.9309 38.072 46.5589 38.056 46.1509 38.024C45.7509 38 45.3869 37.948 45.0589 37.868V29.804C45.3869 29.724 45.7509 29.672 46.1509 29.648C46.5589 29.616 46.9309 29.6 47.2669 29.6C47.9469 29.6 48.5709 29.688 49.1389 29.864C49.7069 30.032 50.1949 30.292 50.6029 30.644C51.0109 30.988 51.3269 31.428 51.5509 31.964C51.7749 32.492 51.8869 33.116 51.8869 33.836ZM47.3629 37.052C48.4669 37.052 49.2909 36.772 49.8349 36.212C50.3789 35.644 50.6509 34.852 50.6509 33.836C50.6509 32.82 50.3789 32.032 49.8349 31.472C49.2909 30.904 48.4669 30.62 47.3629 30.62C47.0349 30.62 46.7789 30.624 46.5949 30.632C46.4189 30.64 46.2949 30.648 46.2229 30.656V37.016C46.2949 37.024 46.4189 37.032 46.5949 37.04C46.7789 37.048 47.0349 37.052 47.3629 37.052ZM67.3536 38V29.684H72.4296V30.68H68.5176V33.152H71.9976V34.124H68.5176V37.004H72.7296V38H67.3536Z" fill="white"/>
<path d="M7.92 21.28C5.66667 21.28 3.94667 20.6533 2.76 19.4C1.58667 18.1467 1 16.3667 1 14.06C1 12.9133 1.18 11.8933 1.54 11C1.9 10.0933 2.39333 9.33333 3.02 8.72C3.64667 8.09333 4.39333 7.62 5.26 7.3C6.12667 6.98 7.06667 6.82 8.08 6.82C8.66667 6.82 9.2 6.86667 9.68 6.96C10.16 7.04 10.58 7.14 10.94 7.26C11.3 7.36667 11.6 7.48 11.84 7.6C12.08 7.72 12.2533 7.81333 12.36 7.88L11.46 10.4C11.0333 10.1733 10.5333 9.98 9.96 9.82C9.4 9.66 8.76 9.58 8.04 9.58C7.56 9.58 7.08667 9.66 6.62 9.82C6.16667 9.98 5.76 10.24 5.4 10.6C5.05333 10.9467 4.77333 11.4 4.56 11.96C4.34667 12.52 4.24 13.2 4.24 14C4.24 14.64 4.30667 15.24 4.44 15.8C4.58667 16.3467 4.81333 16.82 5.12 17.22C5.44 17.62 5.85333 17.94 6.36 18.18C6.86667 18.4067 7.48 18.52 8.2 18.52C8.65333 18.52 9.06 18.4933 9.42 18.44C9.78 18.3867 10.1 18.3267 10.38 18.26C10.66 18.18 10.9067 18.0933 11.12 18C11.3333 17.9067 11.5267 17.82 11.7 17.74L12.56 20.24C12.12 20.5067 11.5 20.7467 10.7 20.96C9.9 21.1733 8.97333 21.28 7.92 21.28ZM16.6809 14.06C16.6809 14.74 16.7609 15.3533 16.9209 15.9C17.0943 16.4467 17.3343 16.92 17.6409 17.32C17.9609 17.7067 18.3476 18.0067 18.8009 18.22C19.2543 18.4333 19.7743 18.54 20.3609 18.54C20.9343 18.54 21.4476 18.4333 21.9009 18.22C22.3676 18.0067 22.7543 17.7067 23.0609 17.32C23.3809 16.92 23.6209 16.4467 23.7809 15.9C23.9543 15.3533 24.0409 14.74 24.0409 14.06C24.0409 13.38 23.9543 12.7667 23.7809 12.22C23.6209 11.66 23.3809 11.1867 23.0609 10.8C22.7543 10.4 22.3676 10.0933 21.9009 9.88C21.4476 9.66667 20.9343 9.56 20.3609 9.56C19.7743 9.56 19.2543 9.67333 18.8009 9.9C18.3476 10.1133 17.9609 10.42 17.6409 10.82C17.3343 11.2067 17.0943 11.68 16.9209 12.24C16.7609 12.7867 16.6809 13.3933 16.6809 14.06ZM27.2609 14.06C27.2609 15.2467 27.0809 16.2933 26.7209 17.2C26.3743 18.0933 25.8943 18.8467 25.2809 19.46C24.6676 20.06 23.9343 20.5133 23.0809 20.82C22.2409 21.1267 21.3343 21.28 20.3609 21.28C19.4143 21.28 18.5209 21.1267 17.6809 20.82C16.8409 20.5133 16.1076 20.06 15.4809 19.46C14.8543 18.8467 14.3609 18.0933 14.0009 17.2C13.6409 16.2933 13.4609 15.2467 13.4609 14.06C13.4609 12.8733 13.6476 11.8333 14.0209 10.94C14.3943 10.0333 14.8943 9.27333 15.5209 8.66C16.1609 8.04667 16.8943 7.58667 17.7209 7.28C18.5609 6.97333 19.4409 6.82 20.3609 6.82C21.3076 6.82 22.2009 6.97333 23.0409 7.28C23.8809 7.58667 24.6143 8.04667 25.2409 8.66C25.8676 9.27333 26.3609 10.0333 26.7209 10.94C27.0809 11.8333 27.2609 12.8733 27.2609 14.06ZM29.8617 21V7.14H39.1417V9.76H32.9817V12.66H38.4617V15.28H32.9817V21H29.8617ZM41.3461 21V7.14H50.6261V9.76H44.4661V12.66H49.9461V15.28H44.4661V21H41.3461ZM52.8305 21V7.14H62.1905V9.76H55.9505V12.48H61.4905V15.04H55.9505V18.38H62.6505V21H52.8305ZM64.9594 21V7.14H74.3194V9.76H68.0794V12.48H73.6194V15.04H68.0794V18.38H74.7794V21H64.9594Z" fill="white"/>
</svg>
